<?xml version="1.0" standalone="no"?>
<!DOCTYPE svg PUBLIC "-//W3C//DTD SVG 20010904//EN"
 "http://www.w3.org/TR/2001/REC-SVG-20010904/DTD/svg10.dtd">
<svg version="1.0" xmlns="http://www.w3.org/2000/svg"
 width="32.000000pt" height="32.000000pt" viewBox="0 0 32.000000 32.000000"
 preserveAspectRatio="xMidYMid meet">

<g transform="translate(0.000000,32.000000) scale(0.100000,-0.100000)"
fill="#000000" stroke="none">
<path d="M0 160 l0 -160 160 0 160 0 0 160 0 160 -160 0 -160 0 0 -160z m188
123 c-26 -7 -24 -73 2 -96 11 -9 20 -22 20 -28 0 -6 -9 -1 -20 12 l-19 24 -1
-57 c0 -40 4 -58 13 -58 8 0 8 -3 -2 -9 -8 -5 -12 -18 -8 -31 5 -19 3 -21 -26
-15 -65 14 -103 54 -114 120 l-6 37 29 -28 29 -29 3 24 c4 25 -23 55 -39 45
-26 -16 11 50 41 73 8 7 19 13 24 13 6 0 2 -6 -9 -13 -13 -10 -15 -16 -6 -21
13 -9 43 23 35 36 -3 5 12 7 33 7 21 -1 30 -3 21 -6z m71 -38 c17 -20 31 -43
31 -53 -1 -10 -6 -4 -14 14 -8 17 -26 40 -41 52 -15 12 -23 22 -17 22 5 0 24
-16 41 -35z m-30 -31 c12 -15 21 -40 20 -58 l-1 -31 -7 35 c-9 45 -18 59 -45
70 -16 7 -17 9 -4 9 9 1 26 -11 37 -25z m58 -96 c-3 -8 -6 -5 -6 6 -1 11 2 17
5 13 3 -3 4 -12 1 -19z m-53 -12 c-3 -8 -13 -17 -22 -21 -13 -5 -13 -2 3 15
21 24 26 25 19 6z m37 -25 c-12 -21 -54 -51 -73 -51 -7 0 2 8 20 17 18 9 37
24 43 34 5 11 12 19 15 19 2 0 0 -8 -5 -19z"/>
<path d="M142 258 c-16 -16 -15 -28 3 -28 8 0 15 9 15 20 0 23 -2 24 -18 8z"/>
<path d="M63 224 c-6 -16 15 -37 29 -28 4 3 8 1 8 -5 0 -5 10 -12 23 -14 l22
-4 -23 -2 c-36 -2 -26 -45 11 -49 26 -3 27 -2 27 46 0 41 -4 51 -19 55 -11 2
-24 0 -30 -6 -8 -8 -11 -6 -11 6 0 22 -29 22 -37 1z"/>
<path d="M47 120 c6 -21 19 -34 46 -43 25 -9 21 10 -8 38 -29 30 -45 32 -38 5z"/>
<path d="M110 101 c0 -4 11 -20 25 -35 l25 -27 0 35 c0 32 -3 36 -25 36 -14 0
-25 -4 -25 -9z"/>
<path d="M94 56 c11 -9 27 -16 35 -16 21 0 2 16 -29 24 -24 7 -24 6 -6 -8z"/>
</g>
</svg>
