<?xml version="1.0" standalone="no"?>
<!DOCTYPE svg PUBLIC "-//W3C//DTD SVG 20010904//EN"
 "http://www.w3.org/TR/2001/REC-SVG-20010904/DTD/svg10.dtd">
<svg version="1.0" xmlns="http://www.w3.org/2000/svg"
 width="30.000000pt" height="30.000000pt" viewBox="0 0 30.000000 30.000000"
 preserveAspectRatio="xMidYMid meet">

<g transform="translate(0.000000,30.000000) scale(0.100000,-0.100000)"
fill="#000000" stroke="none">
<path d="M44 248 l-19 -23 23 19 c21 18 27 26 19 26 -2 0 -12 -10 -23 -22z"/>
<path d="M245 250 c10 -11 20 -20 23 -20 3 0 -3 9 -13 20 -10 11 -20 20 -23
20 -3 0 3 -9 13 -20z"/>
<path d="M142 150 c-11 -33 -17 -60 -13 -60 5 0 16 19 24 43 8 23 18 50 22 60
4 9 3 17 -2 17 -5 0 -19 -27 -31 -60z"/>
<path d="M64 165 c-19 -15 -19 -15 0 -30 11 -8 25 -15 30 -15 6 0 3 6 -6 14
-16 12 -16 14 0 29 20 21 3 22 -24 2z"/>
<path d="M212 163 c16 -15 16 -17 0 -29 -9 -8 -12 -14 -6 -14 5 0 19 7 30 15
19 15 19 15 0 30 -27 20 -44 19 -24 -2z"/>
<path d="M45 50 c10 -11 20 -20 23 -20 3 0 -3 9 -13 20 -10 11 -20 20 -23 20
-3 0 3 -9 13 -20z"/>
<path d="M244 48 l-19 -23 23 19 c21 18 27 26 19 26 -2 0 -12 -10 -23 -22z"/>
</g>
</svg>
