<svg width="37" height="18" viewBox="0 0 37 18" fill="none" xmlns="http://www.w3.org/2000/svg">
<path d="M7.28223 2.13281V15H5.65625V4.16309L2.37793 5.3584V3.89062L7.02734 2.13281H7.28223Z" fill="#373737"/>
<path d="M16.6787 15.8955H15L20.0361 2H21.7148L16.6787 15.8955Z" fill="#373737"/>
<path d="M29.1201 8.90918L27.8193 8.5752L28.4609 2.20312H35.0264V3.70605H29.8408L29.4541 7.18652C29.6885 7.05176 29.9844 6.92578 30.3418 6.80859C30.7051 6.69141 31.1211 6.63281 31.5898 6.63281C32.1816 6.63281 32.7119 6.73535 33.1807 6.94043C33.6494 7.13965 34.0479 7.42676 34.376 7.80176C34.71 8.17676 34.9648 8.62793 35.1406 9.15527C35.3164 9.68262 35.4043 10.2715 35.4043 10.9219C35.4043 11.5371 35.3193 12.1025 35.1494 12.6182C34.9854 13.1338 34.7363 13.585 34.4023 13.9717C34.0684 14.3525 33.6465 14.6484 33.1367 14.8594C32.6328 15.0703 32.0381 15.1758 31.3525 15.1758C30.8369 15.1758 30.3477 15.1055 29.8848 14.9648C29.4277 14.8184 29.0176 14.5986 28.6543 14.3057C28.2969 14.0068 28.0039 13.6377 27.7754 13.1982C27.5527 12.7529 27.4121 12.2314 27.3535 11.6338H28.9004C28.9707 12.1143 29.1113 12.5186 29.3223 12.8467C29.5332 13.1748 29.8086 13.4238 30.1484 13.5938C30.4941 13.7578 30.8955 13.8398 31.3525 13.8398C31.7393 13.8398 32.082 13.7725 32.3809 13.6377C32.6797 13.5029 32.9316 13.3096 33.1367 13.0576C33.3418 12.8057 33.4971 12.501 33.6025 12.1436C33.7139 11.7861 33.7695 11.3848 33.7695 10.9395C33.7695 10.5352 33.7139 10.1602 33.6025 9.81445C33.4912 9.46875 33.3242 9.16699 33.1016 8.90918C32.8848 8.65137 32.6182 8.45215 32.3018 8.31152C31.9854 8.16504 31.6221 8.0918 31.2119 8.0918C30.667 8.0918 30.2539 8.16504 29.9727 8.31152C29.6973 8.45801 29.4131 8.65723 29.1201 8.90918Z" fill="#373737"/>
</svg>
